<?xml version="1.0" encoding="UTF-8" standalone="no"?>
<svg
   xmlns:dc="http://purl.org/dc/elements/1.1/"
   xmlns:cc="http://creativecommons.org/ns#"
   xmlns:rdf="http://www.w3.org/1999/02/22-rdf-syntax-ns#"
   xmlns:svg="http://www.w3.org/2000/svg"
   xmlns="http://www.w3.org/2000/svg"
   xmlns:sodipodi="http://sodipodi.sourceforge.net/DTD/sodipodi-0.dtd"
   xmlns:inkscape="http://www.inkscape.org/namespaces/inkscape"
   sodipodi:docname="favicon.svg"
   inkscape:version="1.0rc1 (09960d6, 2020-04-09)"
   inkscape:export-ydpi="96"
   inkscape:export-xdpi="96"
   inkscape:export-filename="/Users/luke/Code/RentEasy/company/logos/favicon.png"
   id="svg870"
   version="1.1"
   viewBox="0 0 230 230"
   height="230mm"
   width="230mm">
  <defs
     id="defs864" />
  <sodipodi:namedview
     inkscape:window-maximized="0"
     inkscape:window-y="0"
     inkscape:window-x="0"
     inkscape:window-height="1050"
     inkscape:window-width="1680"
     showguides="false"
     showgrid="false"
     inkscape:document-rotation="0"
     inkscape:current-layer="layer1"
     inkscape:document-units="mm"
     inkscape:cy="417.34749"
     inkscape:cx="254.54682"
     inkscape:zoom="0.81309679"
     inkscape:pageshadow="2"
     inkscape:pageopacity="0.0"
     borderopacity="1.0"
     bordercolor="#666666"
     pagecolor="#ffffff"
     id="base" />
  <metadata
     id="metadata867">
    <rdf:RDF>
      <cc:Work
         rdf:about="">
        <dc:format>image/svg+xml</dc:format>
        <dc:type
           rdf:resource="http://purl.org/dc/dcmitype/StillImage" />
        <dc:title></dc:title>
      </cc:Work>
    </rdf:RDF>
  </metadata>
  <g
     id="layer1"
     inkscape:groupmode="layer"
     inkscape:label="Layer 1">
    <g
       transform="matrix(3.8021106,0,0,3.8021106,-250.02524,-264.04732)"
       id="g1517">
      <rect
         ry="3.175"
         y="82.684921"
         x="67.199539"
         height="44.702923"
         width="57.61282"
         id="rect124"
         style="display:inline;fill:#b5dff0;fill-opacity:1;fill-rule:evenodd;stroke-width:0.264583" />
      <rect
         y="72"
         x="75.774025"
         height="14.162349"
         width="5.0098104"
         id="rect126"
         style="display:inline;fill:#b5dff0;fill-opacity:1;fill-rule:evenodd;stroke-width:0.264583" />
      <rect
         y="72"
         x="111.42075"
         height="11.850126"
         width="4.913466"
         id="rect128"
         style="display:inline;fill:#b5dff0;fill-opacity:1;fill-rule:evenodd;stroke-width:0.264583" />
      <path
         inkscape:connector-curvature="0"
         id="path984"
         d="m 85.249966,121.14245 c -0.595144,-0.20564 -0.907774,-0.48206 -1.230947,-1.08837 l -0.151016,-0.28332 -0.01732,-6.35052 -0.01732,-6.35052 -1.282245,-0.0205 c -1.150303,-0.0184 -1.312396,-0.0345 -1.575272,-0.156 -0.676642,-0.31287 -1.120606,-0.95058 -1.180404,-1.69553 -0.04355,-0.54249 0.101255,-0.98482 0.491705,-1.50203 0.38791,-0.51385 14.130334,-14.236438 14.516189,-14.49524 0.781119,-0.523912 1.633699,-0.523239 2.408947,0.0019 0.156897,0.106281 1.315931,1.217433 2.575631,2.469226 l 2.290356,2.275988 0.0275,-0.813031 c 0.0246,-0.727729 0.0454,-0.847727 0.19782,-1.143727 0.21503,-0.417531 0.52646,-0.730278 0.94901,-0.953024 l 0.3307,-0.174326 h 1.55312 1.55315 l 0.33069,0.174326 c 0.43963,0.231751 0.75901,0.561653 0.96128,0.992967 l 0.16607,0.354146 0.0178,3.8338 0.0178,3.833805 1.7305,1.7448 c 0.95177,0.95965 1.81864,1.87491 1.92636,2.03392 0.74294,1.09662 0.3708,2.52056 -0.80023,3.06203 -0.26289,0.12155 -0.42497,0.1376 -1.57556,0.156 l -1.28252,0.0205 -0.017,6.31882 -0.017,6.31882 -0.16609,0.35415 c -0.2111,0.45014 -0.55106,0.79009 -1.00122,1.00119 l -0.35414,0.16608 -3.27921,0.018 -3.2792,0.018 -0.0173,-5.34304 -0.0173,-5.34305 -0.156969,-0.31696 c -0.200134,-0.40412 -0.579988,-0.78398 -0.98411,-0.98411 l -0.316966,-0.15697 H 96.007816 93.44039 l -0.316966,0.15697 c -0.404121,0.20013 -0.783977,0.57999 -0.984109,0.98411 l -0.15697,0.31697 -0.01724,5.34088 -0.01725,5.34088 -3.184116,-0.002 c -2.896217,-0.002 -3.213922,-0.0124 -3.513771,-0.11598 z"
         style="display:inline;fill:#4d5e90;fill-opacity:1;stroke-width:0.0633934" />
    </g>
  </g>
</svg>
