<?xml version="1.0" encoding="UTF-8" standalone="no"?>
<svg
   xmlns:osb="http://www.openswatchbook.org/uri/2009/osb"
   xmlns:dc="http://purl.org/dc/elements/1.1/"
   xmlns:cc="http://creativecommons.org/ns#"
   xmlns:rdf="http://www.w3.org/1999/02/22-rdf-syntax-ns#"
   xmlns:svg="http://www.w3.org/2000/svg"
   xmlns="http://www.w3.org/2000/svg"
   xmlns:sodipodi="http://sodipodi.sourceforge.net/DTD/sodipodi-0.dtd"
   xmlns:inkscape="http://www.inkscape.org/namespaces/inkscape"
   width="320"
   height="320"
   viewBox="0 0 84.666663 84.666668"
   version="1.1"
   id="svg16"
   inkscape:version="1.0rc1 (09960d6, 2020-04-09)"
   sodipodi:docname="leasary-logo-only.svg"
   inkscape:export-filename="/Users/luke/Code/RentEasy/company/logos/leasary-logo-only.png"
   inkscape:export-xdpi="96"
   inkscape:export-ydpi="96">
  <defs
     id="defs10">
    <rect
       x="29.104164"
       y="50.270836"
       width="75.716484"
       height="53.779076"
       id="rect2977" />
    <rect
       x="111.12549"
       y="41.010418"
       width="6.3048401"
       height="63.039494"
       id="rect2962" />
    <linearGradient
       id="linearGradient1008"
       osb:paint="gradient">
      <stop
         style="stop-color:#4d5e90;stop-opacity:1;"
         offset="0"
         id="stop1004" />
      <stop
         style="stop-color:#4d5e90;stop-opacity:0;"
         offset="1"
         id="stop1006" />
    </linearGradient>
  </defs>
  <sodipodi:namedview
     showborder="true"
     inkscape:showpageshadow="false"
     id="base"
     pagecolor="#ffffff"
     bordercolor="#666666"
     borderopacity="1"
     inkscape:pageopacity="0"
     inkscape:pageshadow="2"
     inkscape:zoom="1.6380298"
     inkscape:cx="173.33637"
     inkscape:cy="200.57424"
     inkscape:document-units="px"
     inkscape:current-layer="layer1"
     inkscape:document-rotation="0"
     showgrid="false"
     units="px"
     objecttolerance="10000"
     inkscape:window-width="1680"
     inkscape:window-height="960"
     inkscape:window-x="0"
     inkscape:window-y="23"
     inkscape:window-maximized="0"
     fit-margin-top="0"
     fit-margin-left="0"
     fit-margin-right="0"
     fit-margin-bottom="0" />
  <metadata
     id="metadata13">
    <rdf:RDF>
      <cc:Work
         rdf:about="">
        <dc:format>image/svg+xml</dc:format>
        <dc:type
           rdf:resource="http://purl.org/dc/dcmitype/StillImage" />
        <dc:title></dc:title>
      </cc:Work>
    </rdf:RDF>
  </metadata>
  <g
     inkscape:groupmode="layer"
     id="layer2"
     inkscape:label="Layer 2"
     style="display:inline"
     transform="translate(-29.104164,-41.010418)">
    <rect
       style="fill:#b5dff0;fill-opacity:1;fill-rule:evenodd;stroke-width:0.264583"
       id="rect124"
       width="57.61282"
       height="44.702923"
       x="48.530499"
       y="63.320675"
       ry="3.175" />
    <rect
       style="fill:#b5dff0;fill-opacity:1;fill-rule:evenodd;stroke-width:0.264583"
       id="rect126"
       width="5.0098104"
       height="14.162349"
       x="57.104984"
       y="53.108368" />
    <rect
       style="fill:#b5dff0;fill-opacity:1;fill-rule:evenodd;stroke-width:0.264583"
       id="rect128"
       width="4.913466"
       height="11.850126"
       x="92.751709"
       y="52.81934" />
  </g>
  <g
     inkscape:groupmode="layer"
     id="layer3"
     inkscape:label="Layer 3"
     style="display:inline"
     transform="translate(-29.104164,-41.010418)">
    <path
       style="fill:#4d5e90;fill-opacity:1;stroke-width:0.0633933"
       d="m 66.580921,101.7782 c -0.595144,-0.20564 -0.907774,-0.48206 -1.230947,-1.08837 l -0.151016,-0.28332 -0.01732,-6.35052 -0.01732,-6.35052 -1.282244,-0.0205 c -1.150304,-0.01839 -1.312396,-0.03445 -1.575273,-0.155996 -0.676641,-0.312868 -1.120605,-0.950579 -1.180403,-1.695533 -0.04355,-0.54249 0.101255,-0.984819 0.491705,-1.50203 0.38791,-0.513848 14.130335,-14.236434 14.51619,-14.495236 0.781118,-0.523912 1.633699,-0.523239 2.408945,0.0019 0.156898,0.106281 1.315932,1.217433 2.575631,2.469226 l 2.290362,2.275988 0.02751,-0.813031 c 0.02462,-0.727729 0.04538,-0.847727 0.197818,-1.143727 0.21503,-0.417531 0.52646,-0.730278 0.949008,-0.953024 l 0.330697,-0.174326 h 1.55313 1.55314 l 0.33069,0.174326 c 0.43964,0.231751 0.75901,0.561653 0.96128,0.992967 l 0.16607,0.354146 0.0178,3.8338 0.0178,3.833801 1.7305,1.744807 c 0.95177,0.959645 1.81864,1.874908 1.92636,2.03392 0.74294,1.09662 0.3708,2.520557 -0.80023,3.062025 -0.26289,0.121554 -0.42497,0.137602 -1.57556,0.156 l -1.28252,0.02051 -0.017,6.31882 -0.017,6.318817 -0.16608,0.35415 c -0.2111,0.45014 -0.55106,0.79009 -1.00122,1.00119 l -0.35414,0.16608 -3.27921,0.018 -3.2792,0.018 -0.01725,-5.343039 -0.01725,-5.343049 -0.15697,-0.316967 c -0.200132,-0.40412 -0.579988,-0.783976 -0.984109,-0.984108 l -0.316966,-0.15697 h -2.567568 -2.567427 l -0.316966,0.15697 c -0.404121,0.200132 -0.783977,0.579988 -0.984109,0.984108 l -0.15697,0.316967 -0.01724,5.340879 -0.01725,5.340879 -3.184116,-0.002 c -2.896217,-0.002 -3.213922,-0.0124 -3.513771,-0.11598 z"
       id="path984"
       inkscape:connector-curvature="0" />
    <text
       xml:space="preserve"
       id="text2960"
       style="font-style:normal;font-weight:normal;font-size:10.58329999999999949px;line-height:1.25;font-family:sans-serif;white-space:pre;shape-inside:url(#rect2962);fill:#000000;fill-opacity:1;stroke:none;"><tspan
         sodipodi:role="line"
         style="visibility:hidden"
         x="111.125"
         y="113.70625"><tspan
           dx="0 5.8910947 6.3045049 6.3665152 5.5190258 6.3665161">Leasar</tspan></tspan></text>
  </g>
  <g
     inkscape:label="Layer 1"
     inkscape:groupmode="layer"
     id="layer1"
     style="display:inline"
     transform="translate(-29.104164,-41.010418)">
    <rect
       style="fill:#b5dff0;fill-opacity:1;fill-rule:evenodd;stroke-width:0.202602"
       id="rect99"
       width="9.260417"
       height="76.719284"
       x="30.426836"
       y="44.984108"
       ry="3.175" />
    <rect
       y="-112.44816"
       x="44.984108"
       height="82.021324"
       width="9.260417"
       id="rect99-7"
       style="fill:#b5dff0;fill-opacity:1;fill-rule:evenodd;stroke-width:0.209487"
       transform="rotate(90)"
       ry="3.175" />
  </g>
  <g
     inkscape:groupmode="layer"
     id="layer4"
     inkscape:label="Layer 4"
     transform="translate(-29.104164,-41.010418)" />
</svg>
